<svg width="14" height="16" viewBox="0 0 14 16" fill="none" xmlns="http://www.w3.org/2000/svg">
<path d="M5.33438 5.15987L10.9028 5.15987C10.9603 5.15984 11.0173 5.17114 11.0704 5.19313C11.1235 5.21511 11.1718 5.24736 11.2124 5.28801C11.2531 5.32867 11.2853 5.37694 11.3073 5.43006C11.3293 5.48318 11.3406 5.54012 11.3406 5.59761L11.3406 11.1661C11.3406 11.2822 11.2945 11.3935 11.2124 11.4756C11.1303 11.5577 11.0189 11.6038 10.9028 11.6038C10.7867 11.6038 10.6754 11.5577 10.5933 11.4756C10.5112 11.3935 10.4651 11.2822 10.4651 11.1661L10.4655 6.65369L4.4063 12.7129C4.32426 12.7949 4.21298 12.841 4.09694 12.841C3.98091 12.841 3.86963 12.7949 3.78758 12.7129C3.70554 12.6308 3.65944 12.5195 3.65944 12.4035C3.65944 12.2875 3.70554 12.1762 3.78758 12.0942L9.84677 6.03497L5.33438 6.03536C5.21828 6.03536 5.10694 5.98924 5.02485 5.90715C4.94275 5.82505 4.89664 5.71371 4.89664 5.59761C4.89664 5.48152 4.94276 5.37018 5.02485 5.28808C5.10694 5.20599 5.21828 5.15987 5.33438 5.15987Z" fill="white"/>
</svg>
