<svg width="246" height="61" viewBox="0 0 246 61" fill="none" xmlns="http://www.w3.org/2000/svg">
<path d="M20.5685 25.1583L11.2268 19.8405L1.88507 25.1583V35.8479L11.1722 41.1387L20.5685 35.7669V25.1583Z" fill="white"/>
<path d="M41.1629 25.1583L31.8212 19.8405L22.4521 25.1583V35.7669L31.8212 41.0847L41.1629 35.7669V25.1583Z" fill="white"/>
<path d="M12.1816 42.7854V53.367L21.5233 58.7118L30.865 53.367V42.7854L21.5233 37.4406L12.1816 42.7854Z" fill="white"/>
<path d="M30.865 18.14V7.47735L21.5233 2.15955L12.1816 7.47735V18.14L21.5233 23.4848L30.865 18.14Z" fill="white"/>
<path d="M32.7497 42.7854V53.367L42.0914 58.7118L51.4605 53.367V42.7854L42.0914 37.4406L32.7497 42.7854Z" fill="white"/>
<path d="M51.4605 18.14V7.47735L42.0914 2.15955L32.7497 7.47735V18.14L42.0914 23.4848L51.4605 18.14Z" fill="white"/>
<path d="M43.0495 25.1583V35.7669L52.4732 41.1387L61.7329 35.8479V25.1583L52.3912 19.8405L43.0495 25.1583Z" fill="white"/>
<path d="M53.3462 6.39757L42.0924 0L31.7946 5.85769L21.5242 0L10.2977 6.39757V18.2209L0 24.1056V36.9277L10.2977 42.7854V54.4468L21.5242 60.8444L31.822 54.9867L42.1197 60.8444L53.3462 54.4468V42.7854L63.6439 36.9277V24.1056L53.3462 18.2479V6.39757ZM32.778 7.47732L42.1197 2.13252L51.4614 7.47732V18.1399L42.1197 23.4847L32.778 18.1399V7.47732ZM12.2098 7.47732L21.5242 2.15952L30.8659 7.50432V18.1669L21.5242 23.5117L12.1825 18.1669V7.47732H12.2098ZM1.88473 35.848V25.1854L11.2265 19.8406L20.5682 25.1854V35.767L11.1445 41.1388L1.85742 35.848H1.88473ZM30.8659 53.394L21.5242 58.7388L12.1825 53.394V42.8124L21.5242 37.4676L30.8659 42.8124V53.394ZM22.4529 35.794V25.2123L31.7946 19.8675L41.1364 25.2123V35.794L31.7946 41.1388L22.4529 35.794ZM51.4341 53.394L42.0924 58.7388L32.7507 53.394V42.8124L42.0924 37.4676L51.4341 42.8124V53.394ZM61.7319 25.1854V35.848L52.4448 41.1388L43.0211 35.767V25.1854L52.3628 19.8406L61.7045 25.1854H61.7319Z" fill="#070707"/>
<path d="M50.3695 30.4222L47.0098 26.67L40.3722 24.7264L38.1051 28.4786L36.9852 30.4222L38.1051 32.3657L40.3722 36.1449L47.0098 34.1743L50.3695 30.4222Z" fill="url(#paint0_linear_1_270)"/>
<path d="M20.1851 28.7215V32.1497L22.3156 33.3644V27.4797L20.1851 28.7215Z" fill="#FABC2D"/>
<path d="M37.3387 38.6822V38.5473L34.7711 34.2822L36.9836 38.0614L37.3387 38.6822Z" fill="#070707"/>
<path d="M34.7711 26.562L37.3387 22.2969V22.189L36.9836 22.7828L34.7711 26.562Z" fill="#070707"/>
<path d="M38.1032 28.4785L36.956 30.4221L38.1032 32.3656L36.9833 30.4221L38.1032 28.4785Z" fill="#070707"/>
<path d="M40.3177 36.1449H40.3724L38.1052 32.3657L40.3177 36.1449Z" fill="#070707"/>
<path d="M34.7728 34.2822L33.6256 32.3386L32.533 30.422L33.6256 28.5324L34.7728 26.5619L32.451 30.422L34.7728 34.2822Z" fill="#070707"/>
<path d="M40.3177 24.6995L38.1052 28.4786L40.3724 24.7265L40.3177 24.6995Z" fill="#070707"/>
<path d="M53.264 27.9117L49.9042 24.1595L49.1667 23.3497L48.1014 23.0258L41.4093 21.0552L41.1907 20.9742V13.7399L39.2514 12.6331L33.6791 9.44782L31.7398 8.34106L29.8004 9.44782L24.2281 12.6331L22.2888 13.7399V22.081L20.7864 22.9448L17.7818 24.6724L15.4054 26.0221V34.8761L17.7818 36.2258L20.7864 37.9534L22.2888 38.8172V47.1584L24.2281 48.2651L29.8004 51.4504L31.7398 52.5572L33.6791 51.4504L39.2514 48.2651L41.1907 47.1584V39.924L41.4093 39.843L48.1014 37.8724L49.1667 37.5485L49.9042 36.7387L53.264 32.9865L55.5038 30.4761L53.264 27.9657V27.9117ZM22.3161 27.4798V33.3645L20.1855 32.1497V28.7215L22.3161 27.5068V27.4798ZM37.3393 38.6553V44.8909L31.7671 48.0762L26.1948 44.8909V37.5485V15.9264L31.7671 12.7411L37.3393 15.9264V22.162V22.2969L34.7717 26.562L33.6245 28.5325L32.5046 30.4491L33.6245 32.3657L34.7717 34.3092L37.3393 38.5743V38.7093V38.6553ZM42.0921 31.8258L44.0861 35.0111L40.3713 36.1178H40.3167L38.1041 32.3387L36.9569 30.4221L38.1315 28.4786L40.344 24.6994H40.3986L44.1134 25.8062L42.1194 28.9914L41.2181 30.4221L42.1194 31.8528L42.0921 31.8258ZM47.0908 34.0663L44.7963 30.3951L47.0908 26.7239L50.3686 30.3951L47.0908 34.0663Z" fill="#070707"/>
<path d="M31.7667 12.7411L26.1671 15.9264V21.4061V23.2687V28.6945V32.1497V37.5755V38.7903V44.9179L31.7667 48.1032L37.3389 44.9179V38.6823L36.9838 38.0614L34.7713 34.2823L32.4496 30.4221L34.7713 26.562L36.9838 22.7828L37.3389 22.189V15.9264L31.7667 12.7411Z" fill="#FABC2D"/>
<path d="M27.5068 44.162V16.6821L31.7679 14.2527L36.029 16.6821V21.838L33.6526 25.9141L30.9211 30.4221L33.6526 34.957L36.029 39.0331V44.162L31.7679 46.5914L27.5068 44.162Z" fill="url(#paint1_linear_1_270)"/>
<path d="M70.9382 44.9719V15.4406H82.8748C85.06 15.4406 86.8901 15.7645 88.3651 16.4123C89.8401 17.0602 90.9327 17.951 91.6703 19.0847C92.4078 20.2185 92.7902 21.5412 92.7902 22.9989C92.7902 24.4565 92.5443 25.1584 92.08 26.0222C91.6156 26.886 90.9601 27.6148 90.1679 28.1547C89.3485 28.7216 88.4471 29.0995 87.3818 29.3154V29.6124C88.529 29.6664 89.5943 29.9903 90.5777 30.5572C91.5883 31.151 92.3804 31.9608 93.0087 33.0136C93.6369 34.0664 93.9374 35.3081 93.9374 36.7658C93.9374 38.2234 93.555 39.7081 92.7628 40.9498C91.9707 42.1916 90.8235 43.1633 89.2938 43.8652C87.7642 44.567 85.8795 44.9179 83.6396 44.9179H70.8835L70.9382 44.9719ZM77.2206 27.8038H81.9188C82.7929 27.8038 83.5577 27.6418 84.2406 27.3449C84.9234 27.048 85.4424 26.616 85.8248 26.0492C86.2073 25.4823 86.3985 24.8075 86.3985 24.0516C86.3985 23.2958 86.016 22.1351 85.2785 21.4872C84.5137 20.8393 83.4484 20.5154 82.0281 20.5154H77.2206V27.8308V27.8038ZM77.2206 39.8701H82.3832C84.1313 39.8701 85.4151 39.5461 86.2346 38.8713C87.054 38.1965 87.4364 37.3057 87.4364 36.1989C87.4364 35.0921 87.2452 34.6602 86.8355 34.0394C86.4531 33.4185 85.8795 32.9326 85.142 32.5547C84.4045 32.2038 83.5304 32.0148 82.5197 32.0148H77.1933V39.8701H77.2206Z" fill="#070707"/>
<path d="M142.722 44.972V41.3008L153.675 27.8848V27.7228H143.077V22.8099H161.132V26.832L150.835 39.8971V40.0591H161.488V44.972H142.695H142.722Z" fill="#070707"/>
<path d="M212.538 45.4038C210.244 45.4038 208.277 44.9179 206.638 43.9461C205 42.9744 203.743 41.6247 202.842 39.924C201.94 38.2234 201.531 36.2259 201.531 33.9854C201.531 31.7449 201.968 29.7203 202.869 27.9927C203.77 26.2651 205.027 24.9424 206.666 23.9706C208.305 22.9988 210.271 22.5129 212.538 22.5129C214.806 22.5129 216.199 22.8639 217.674 23.5657C219.149 24.2675 220.296 25.2393 221.143 26.508C221.989 27.7768 222.454 29.2614 222.536 30.989H216.69C216.581 30.2602 216.363 29.6123 216.007 29.0455C215.652 28.4786 215.188 28.0737 214.614 27.7498C214.041 27.4528 213.358 27.2909 212.62 27.2909C211.883 27.2909 210.818 27.5338 210.107 28.0467C209.397 28.5596 208.851 29.2884 208.441 30.2872C208.059 31.259 207.84 32.4737 207.84 33.8504C207.84 35.2271 208.031 36.4418 208.441 37.4676C208.824 38.4664 209.397 39.2492 210.107 39.7621C210.818 40.302 211.664 40.5449 212.62 40.5449C213.576 40.5449 214.587 40.221 215.325 39.5461C216.062 38.8713 216.526 37.9535 216.69 36.7927H222.536C222.454 38.4934 221.989 39.978 221.143 41.2737C220.323 42.5694 219.176 43.5682 217.728 44.2971C216.281 45.0259 214.532 45.3768 212.538 45.3768V45.4038Z" fill="#070707"/>
<path d="M244.99 26.4001C244.334 25.1584 243.433 24.2136 242.285 23.5387C241.111 22.8639 239.772 22.54 238.215 22.54C236.659 22.54 235.102 22.9179 233.982 23.6737C232.862 24.4295 232.042 25.4553 231.523 26.751H231.25V15.4406L225.268 18.113V44.9449H231.469V32.1498C231.469 31.205 231.66 30.3952 232.015 29.7203C232.37 29.0455 232.889 28.5326 233.517 28.1547C234.146 27.8038 234.91 27.6148 235.757 27.6148C237.014 27.6148 238.024 27.9927 238.707 28.7756C239.417 29.5314 239.772 30.6112 239.772 31.9608V44.9449H246V30.8541C246 29.0995 245.672 27.6148 245.017 26.3731L244.99 26.4001Z" fill="#070707"/>
<path d="M172.632 38.3584V27.4528H176.866V22.8098H172.632V17.546L166.432 20.3264V22.8098H163.372V27.4528H166.432V39.0872C166.432 39.1682 166.432 39.2222 166.432 39.2762V41.4897C166.432 43.6492 168.207 45.4038 170.392 45.4038H176.866V39.2762H173.561C173.042 39.2762 172.632 38.8712 172.632 38.3584Z" fill="#070707"/>
<path d="M117.073 33.7964C117.073 31.9068 116.8 30.2602 116.281 28.8565C115.735 27.4528 114.998 26.2921 114.042 25.3473C113.085 24.4295 111.966 23.7277 110.682 23.2418C109.398 22.7829 108.005 22.5399 106.53 22.5399C104.345 22.5399 102.433 23.0258 100.794 23.9976C99.1822 24.9694 97.9257 26.2921 97.0243 28.0197C96.1229 29.7473 95.6859 31.7179 95.6859 34.0123C95.6859 36.3068 96.1229 38.3854 97.0243 40.086C97.9257 41.7866 99.1822 43.1093 100.876 44.0271C102.542 44.9449 104.536 45.4038 106.83 45.4038C109.125 45.4038 110.299 45.1339 111.692 44.567C113.085 44.0001 114.233 43.2173 115.134 42.2185C116.036 41.2197 116.609 40.032 116.882 38.6553H110.982C110.791 39.0332 110.545 39.3841 110.245 39.6541C109.835 40.032 109.343 40.3289 108.797 40.5179C108.223 40.7068 107.595 40.8148 106.912 40.8148C105.902 40.8148 105.028 40.5989 104.263 40.14C103.498 39.6811 102.897 39.0332 102.46 38.1694C102.078 37.4136 101.859 36.4958 101.832 35.443H117.101V33.7694L117.073 33.7964ZM101.832 31.6639C101.914 30.935 102.078 30.2872 102.351 29.6933C102.733 28.9105 103.252 28.2626 103.962 27.8037C104.672 27.3448 105.519 27.1019 106.53 27.1019C107.541 27.1019 108.387 27.3178 109.098 27.7767C109.78 28.2356 110.299 28.8835 110.654 29.7203C110.9 30.2872 111.037 30.935 111.119 31.6639H101.832Z" fill="#070707"/>
<path d="M140.18 33.7964C140.18 31.9068 139.907 30.2602 139.388 28.8565C138.842 27.4528 138.104 26.2921 137.148 25.3473C136.192 24.4295 135.072 23.7277 133.789 23.2418C132.505 22.7829 131.112 22.5399 129.637 22.5399C127.452 22.5399 125.539 23.0258 123.901 23.9976C122.289 24.9694 121.032 26.2921 120.131 28.0197C119.23 29.7473 118.793 31.7179 118.793 34.0123C118.793 36.3068 119.039 37.2786 119.53 38.6553C119.694 39.1412 119.913 39.6271 120.131 40.059C121.032 41.7596 122.289 43.0823 123.983 44.0001C125.649 44.9179 127.643 45.3768 129.937 45.3768C132.232 45.3768 133.406 45.1069 134.799 44.54C136.192 43.9731 137.34 43.1903 138.241 42.1915C139.142 41.1927 139.716 40.005 139.989 38.6283H134.089C133.898 39.0062 133.652 39.3571 133.352 39.6271C132.942 40.005 132.45 40.3019 131.904 40.4909C131.33 40.6799 130.702 40.7878 130.019 40.7878C129.008 40.7878 128.134 40.5719 127.37 40.113C126.741 39.7351 126.25 39.2492 125.84 38.6283C125.758 38.4663 125.649 38.3314 125.567 38.1694C125.184 37.4136 124.966 36.4958 124.939 35.443H140.208V33.7694L140.18 33.7964ZM124.939 31.6639C125.02 30.935 125.184 30.2872 125.458 29.6933C125.84 28.9105 126.359 28.2626 127.069 27.8037C127.779 27.3448 128.626 27.1019 129.637 27.1019C130.647 27.1019 131.494 27.3178 132.204 27.7767C132.887 28.2356 133.406 28.8835 133.761 29.7203C134.007 30.2872 134.144 30.935 134.226 31.6639H124.939Z" fill="#070707"/>
<path d="M199.81 33.7964C199.81 31.9068 199.537 30.2602 199.018 28.8565C198.472 27.4528 197.734 26.2921 196.778 25.3473C195.822 24.4295 194.702 23.7277 193.419 23.2418C192.135 22.7829 190.742 22.5399 189.267 22.5399C187.081 22.5399 185.169 23.0258 183.531 23.9976C181.919 24.9694 180.662 26.2921 179.761 28.0197C178.86 29.7473 178.423 31.7179 178.423 34.0123C178.423 36.3068 178.668 37.2786 179.16 38.6553C179.324 39.1412 179.543 39.6271 179.761 40.059C180.662 41.7596 181.919 43.0823 183.612 44.0001C185.279 44.9179 187.273 45.3768 189.567 45.3768C191.862 45.3768 193.036 45.1069 194.429 44.54C195.822 43.9731 196.969 43.1903 197.871 42.1915C198.772 41.1927 199.346 40.005 199.619 38.6283H193.719C193.528 39.0062 193.282 39.3571 192.981 39.6271C192.572 40.005 192.08 40.3019 191.534 40.4909C190.96 40.6799 190.332 40.7878 189.649 40.7878C188.638 40.7878 187.764 40.5719 187 40.113C186.371 39.7351 185.88 39.2492 185.47 38.6283C185.388 38.4663 185.279 38.3314 185.197 38.1694C184.814 37.4136 184.596 36.4958 184.568 35.443H199.838V33.7694L199.81 33.7964ZM184.568 31.6639C184.65 30.935 184.814 30.2872 185.087 29.6933C185.47 28.9105 185.989 28.2626 186.699 27.8037C187.409 27.3448 188.256 27.1019 189.267 27.1019C190.277 27.1019 191.124 27.3178 191.834 27.7767C192.517 28.2356 193.036 28.8835 193.391 29.7203C193.637 30.2872 193.774 30.935 193.856 31.6639H184.568Z" fill="#070707"/>
<defs>
<linearGradient id="paint0_linear_1_270" x1="36.9852" y1="30.4222" x2="50.3695" y2="30.4222" gradientUnits="userSpaceOnUse">
<stop stop-color="#FABC2D"/>
<stop offset="1" stop-color="#F05840"/>
</linearGradient>
<linearGradient id="paint1_linear_1_270" x1="27.5068" y1="30.4221" x2="36.029" y2="30.4221" gradientUnits="userSpaceOnUse">
<stop stop-color="#FABC2D"/>
<stop offset="1" stop-color="#F05840"/>
</linearGradient>
</defs>
</svg>
